<svg width="24" height="12" fill="none" xmlns="http://www.w3.org/2000/svg">
  <g fill="currentColor" fill-rule="evenodd">
	<path clip-rule="evenodd" d="M23.125 5.715c-.209-.23-5.16-5.68-11.4-5.68C5.488.034.536 5.484.328 5.714a.426.426 0 000 .566c.208.235 5.16 5.685 11.399 5.685 6.238 0 11.19-5.45 11.399-5.68a.427.427 0 000-.571zm-11.4 5.399c-5.062 0-9.374-4.002-10.49-5.114C2.35 4.888 6.654.886 11.724.886c5.072 0 9.376 4.002 10.492 5.114-1.116 1.112-5.42 5.114-10.491 5.114z" />
	<path clip-rule="evenodd" d="M7.89 6a3.835 3.835 0 107.67 0 3.835 3.835 0 00-7.67 0zm6.819 0a2.984 2.984 0 11-5.968-.001A2.984 2.984 0 0114.709 6z" />
	</g>
</svg>