<svg xmlns="http://www.w3.org/2000/svg" width="24" height="12">
  <g fill="currentColor" fill-rule="evenodd">
    <path d="M11.727.034C5.49.034.537 5.484.328 5.714a.426.426 0 0 0 0 .567c.209.235 5.16 5.685 11.4 5.685 6.238 0 11.19-5.45 11.398-5.68a.427.427 0 0 0 0-.571c-.208-.23-5.16-5.68-11.399-5.68zm0 11.08C6.665 11.114 2.352 7.112 1.236 6 2.352 4.888 6.656.886 11.727.886S21.102 4.888 22.22 6c-1.117 1.112-5.42 5.114-10.492 5.114z"/>
    <path d="M7.892 6a3.835 3.835 0 1 0 7.67 0 3.835 3.835 0 0 0-7.67 0zm6.818 0a2.984 2.984 0 1 1-5.968-.001A2.984 2.984 0 0 1 14.71 6z"/>
    <path fill-rule="nonzero" d="M23.284.049l-23 11a.5.5 0 0 0 .432.902l23-11a.5.5 0 0 0-.432-.902z"/>
  </g>
</svg>
